<svg width="906" height="726" viewBox="0 0 906 726" fill="none" xmlns="http://www.w3.org/2000/svg">
<rect width="906" height="726" fill="black"/>
<path d="M242.714 343H218.698C217.735 343 217.026 342.797 216.57 342.392C216.165 341.936 215.962 341.227 215.962 340.264V331.372C215.962 330.409 216.165 329.725 216.57 329.32C217.026 328.864 217.735 328.636 218.698 328.636H239.142C239.801 328.636 240.282 328.433 240.586 328.028C240.941 327.572 241.118 327.04 241.118 326.432C241.118 325.571 240.941 324.937 240.586 324.532C240.282 324.127 239.801 323.899 239.142 323.848L227.742 322.252C224.195 321.745 221.333 320.58 219.154 318.756C217.026 316.932 215.962 313.892 215.962 309.636V301.656C215.962 297.349 217.355 294.056 220.142 291.776C222.929 289.445 226.779 288.28 231.694 288.28H252.974C253.937 288.28 254.621 288.508 255.026 288.964C255.482 289.369 255.71 290.053 255.71 291.016V300.06C255.71 301.023 255.482 301.732 255.026 302.188C254.621 302.593 253.937 302.796 252.974 302.796H235.266C234.607 302.796 234.101 303.024 233.746 303.48C233.391 303.885 233.214 304.417 233.214 305.076C233.214 305.735 233.391 306.292 233.746 306.748C234.101 307.204 234.607 307.457 235.266 307.508L246.59 309.028C250.137 309.535 252.999 310.7 255.178 312.524C257.357 314.348 258.446 317.388 258.446 321.644V329.624C258.446 333.931 257.027 337.249 254.19 339.58C251.403 341.86 247.578 343 242.714 343ZM248.87 295.12H231.998C229.667 295.12 227.793 295.779 226.374 297.096C224.955 298.363 224.246 300.009 224.246 302.036V308.268C224.246 310.345 224.651 311.789 225.462 312.6C226.323 313.36 227.413 313.867 228.73 314.12L244.766 317.388C246.185 317.692 247.299 318.3 248.11 319.212C248.971 320.073 249.402 321.695 249.402 324.076V328.484C249.402 330.511 248.693 332.183 247.274 333.5C245.906 334.767 244.057 335.4 241.726 335.4H222.802V336.16H241.726C244.31 336.16 246.362 335.451 247.882 334.032C249.402 332.563 250.162 330.713 250.162 328.484V324.076C250.162 321.441 249.655 319.617 248.642 318.604C247.679 317.591 246.438 316.932 244.918 316.628L228.882 313.36C227.717 313.157 226.779 312.701 226.07 311.992C225.361 311.283 225.006 310.041 225.006 308.268V302.036C225.006 300.263 225.639 298.793 226.906 297.628C228.173 296.463 229.87 295.88 231.998 295.88H248.87V295.12ZM291.857 343H279.545C278.583 343 277.873 342.797 277.417 342.392C277.012 341.936 276.809 341.227 276.809 340.264V302.948H265.637C264.675 302.948 263.965 302.745 263.509 302.34C263.104 301.884 262.901 301.175 262.901 300.212V291.016C262.901 290.053 263.104 289.369 263.509 288.964C263.965 288.508 264.675 288.28 265.637 288.28H305.765C306.728 288.28 307.412 288.508 307.817 288.964C308.273 289.369 308.501 290.053 308.501 291.016V300.212C308.501 301.175 308.273 301.884 307.817 302.34C307.412 302.745 306.728 302.948 305.765 302.948H294.593V340.264C294.593 341.227 294.365 341.936 293.909 342.392C293.504 342.797 292.82 343 291.857 343ZM285.321 336.16H286.081V295.88H301.661V295.12H269.741V295.88H285.321V336.16ZM341.428 295.88C344.114 295.88 346.09 296.615 347.356 298.084C348.674 299.553 349.332 301.453 349.332 303.784V309.104C349.332 311.891 348.8 314.044 347.736 315.564C346.672 317.084 344.57 317.844 341.428 317.844H324.86V295.88H341.428ZM333.068 301.96V311.688H338.768C340.086 311.688 340.972 311.359 341.428 310.7C341.884 309.991 342.112 309.129 342.112 308.116V305.532C342.112 304.519 341.884 303.683 341.428 303.024C340.972 302.315 340.086 301.96 338.768 301.96H333.068ZM324.86 336.16V318.528H346.368C349.256 318.528 351.384 319.161 352.752 320.428C354.12 321.644 354.804 323.493 354.804 325.976V336.16H355.564V325.976C355.564 323.341 354.804 321.34 353.284 319.972C351.764 318.553 349.459 317.844 346.368 317.844H345.532C347.356 317.287 348.572 316.273 349.18 314.804C349.788 313.284 350.092 311.359 350.092 309.028V303.784C350.092 301.301 349.383 299.249 347.964 297.628C346.546 295.956 344.367 295.12 341.428 295.12H324.1V336.16H324.86ZM330.332 343H318.628C317.666 343 316.956 342.797 316.5 342.392C316.095 341.936 315.892 341.227 315.892 340.264V291.016C315.892 290.053 316.095 289.369 316.5 288.964C316.956 288.508 317.666 288.28 318.628 288.28H343.936C349.611 288.28 353.512 289.471 355.64 291.852C357.819 294.183 358.908 297.223 358.908 300.972V304.468C358.908 306.596 358.579 308.42 357.92 309.94C357.312 311.409 356.223 312.473 354.652 313.132C357.388 313.436 359.592 314.551 361.264 316.476C362.987 318.401 363.848 320.96 363.848 324.152V340.264C363.848 341.227 363.62 341.936 363.164 342.392C362.759 342.797 362.075 343 361.112 343H349.332C348.37 343 347.66 342.797 347.204 342.392C346.799 341.936 346.596 341.227 346.596 340.264V328.636C346.596 327.521 346.368 326.711 345.912 326.204C345.507 325.647 344.772 325.368 343.708 325.368H333.068V340.264C333.068 341.227 332.84 341.936 332.384 342.392C331.979 342.797 331.295 343 330.332 343ZM410.373 343H375.109C374.146 343 373.437 342.797 372.981 342.392C372.576 341.936 372.373 341.227 372.373 340.264V291.016C372.373 290.053 372.576 289.369 372.981 288.964C373.437 288.508 374.146 288.28 375.109 288.28H410.373C411.336 288.28 412.02 288.508 412.425 288.964C412.881 289.369 413.109 290.053 413.109 291.016V299.908C413.109 300.871 412.881 301.58 412.425 302.036C412.02 302.441 411.336 302.644 410.373 302.644H389.397V308.496H404.217C405.18 308.496 405.864 308.724 406.269 309.18C406.725 309.585 406.953 310.269 406.953 311.232V319.364C406.953 320.327 406.725 321.036 406.269 321.492C405.864 321.897 405.18 322.1 404.217 322.1H389.397V328.636H410.373C411.336 328.636 412.02 328.864 412.425 329.32C412.881 329.725 413.109 330.409 413.109 331.372V340.264C413.109 341.227 412.881 341.936 412.425 342.392C412.02 342.797 411.336 343 410.373 343ZM406.269 335.4H381.417V315.716H400.113V314.956H381.417V295.88H406.269V295.12H380.657V336.16H406.269V335.4ZM429.775 319.972C429.775 318.604 429.877 317.337 430.079 316.172C430.333 315.007 430.637 313.917 430.991 312.904L435.855 300.44C436.362 299.173 436.919 298.109 437.527 297.248C438.135 296.336 439.199 295.88 440.719 295.88H448.167C449.586 295.88 450.599 296.336 451.207 297.248C451.815 298.109 452.398 299.199 452.955 300.516L458.199 312.904C458.554 313.917 458.833 315.007 459.035 316.172C459.289 317.337 459.415 318.604 459.415 319.972V322.328H429.775V319.972ZM441.935 304.24L438.363 315.792H450.295L446.723 304.24C446.521 303.784 446.293 303.455 446.039 303.252C445.837 303.049 445.583 302.948 445.279 302.948H443.379C443.075 302.948 442.797 303.049 442.543 303.252C442.341 303.455 442.138 303.784 441.935 304.24ZM459.415 336.16H460.175V319.972C460.175 318.553 460.049 317.261 459.795 316.096C459.593 314.88 459.289 313.715 458.883 312.6L453.639 300.212C453.031 298.743 452.373 297.527 451.663 296.564C451.005 295.601 449.839 295.12 448.167 295.12H440.719C438.997 295.12 437.781 295.601 437.071 296.564C436.362 297.527 435.729 298.717 435.171 300.136L430.307 312.6C429.902 313.715 429.573 314.88 429.319 316.096C429.117 317.261 429.015 318.553 429.015 319.972V336.16H429.775V323.088H459.415V336.16ZM437.603 340.264C437.603 341.227 437.375 341.936 436.919 342.392C436.514 342.797 435.83 343 434.867 343H423.695C422.733 343 422.023 342.797 421.567 342.392C421.162 341.936 420.959 341.227 420.959 340.264V320.2C420.959 318.68 421.187 316.932 421.643 314.956C422.15 312.98 422.91 310.675 423.923 308.04L430.535 290.788C430.839 289.927 431.295 289.293 431.903 288.888C432.562 288.483 433.398 288.28 434.411 288.28H454.855C455.818 288.28 456.603 288.483 457.211 288.888C457.87 289.293 458.351 289.927 458.655 290.788L465.267 308.04C466.281 310.675 467.015 312.98 467.471 314.956C467.978 316.932 468.231 318.68 468.231 320.2V340.264C468.231 341.227 468.003 341.936 467.547 342.392C467.142 342.797 466.458 343 465.495 343H454.019C453.006 343 452.246 342.797 451.739 342.392C451.283 341.936 451.055 341.227 451.055 340.264V329.624H437.603V340.264ZM504.367 313.74C503.455 313.74 502.796 313.537 502.391 313.132C501.986 312.727 501.352 311.865 500.491 310.548L491.219 296.412C490.915 295.905 490.56 295.576 490.155 295.424C489.75 295.221 489.344 295.12 488.939 295.12H487.647C486.988 295.12 486.482 295.323 486.127 295.728C485.823 296.083 485.671 296.665 485.671 297.476V336.16H486.431V297.476C486.431 297.071 486.507 296.716 486.659 296.412C486.811 296.057 487.14 295.88 487.647 295.88H488.787C489.142 295.88 489.446 295.931 489.699 296.032C490.003 296.133 490.307 296.437 490.611 296.944L499.883 310.928C500.795 312.296 501.479 313.233 501.935 313.74C502.442 314.247 503.252 314.5 504.367 314.5C505.482 314.5 506.267 314.247 506.723 313.74C507.23 313.233 507.939 312.296 508.851 310.928L518.123 296.944C518.427 296.437 518.706 296.133 518.959 296.032C519.212 295.931 519.516 295.88 519.871 295.88H521.011C521.518 295.88 521.847 296.057 521.999 296.412C522.202 296.716 522.303 297.071 522.303 297.476V336.16H523.063V297.476C523.063 296.665 522.886 296.083 522.531 295.728C522.227 295.323 521.72 295.12 521.011 295.12H519.719C519.314 295.12 518.908 295.221 518.503 295.424C518.148 295.576 517.819 295.905 517.515 296.412L508.243 310.548C507.382 311.865 506.748 312.727 506.343 313.132C505.938 313.537 505.279 313.74 504.367 313.74ZM491.675 343H480.351C479.388 343 478.679 342.797 478.223 342.392C477.818 341.936 477.615 341.227 477.615 340.264V291.016C477.615 290.053 477.818 289.369 478.223 288.964C478.679 288.508 479.388 288.28 480.351 288.28H492.587C493.398 288.28 494.056 288.457 494.563 288.812C495.12 289.167 495.627 289.749 496.083 290.56L502.923 302.948C503.176 303.404 503.379 303.733 503.531 303.936C503.734 304.139 503.987 304.24 504.291 304.24H504.975C505.279 304.24 505.507 304.139 505.659 303.936C505.862 303.733 506.09 303.404 506.343 302.948L513.107 290.56C513.563 289.749 514.044 289.167 514.551 288.812C515.108 288.457 515.792 288.28 516.603 288.28H528.915C529.878 288.28 530.562 288.508 530.967 288.964C531.423 289.369 531.651 290.053 531.651 291.016V340.264C531.651 341.227 531.423 341.936 530.967 342.392C530.562 342.797 529.878 343 528.915 343H517.211C516.248 343 515.539 342.797 515.083 342.392C514.678 341.936 514.475 341.227 514.475 340.264V313.512L509.991 321.796C509.535 322.657 508.978 323.291 508.319 323.696C507.711 324.051 506.926 324.228 505.963 324.228H502.923C501.96 324.228 501.15 324.051 500.491 323.696C499.883 323.291 499.351 322.657 498.895 321.796L494.411 313.512V340.264C494.411 341.227 494.183 341.936 493.727 342.392C493.322 342.797 492.638 343 491.675 343ZM543.631 343C542.669 343 541.959 342.797 541.503 342.392C541.098 341.936 540.895 341.227 540.895 340.264V331.22C540.895 330.257 541.098 329.573 541.503 329.168C541.959 328.712 542.669 328.484 543.631 328.484H551.155V302.948H543.631C542.669 302.948 541.959 302.745 541.503 302.34C541.098 301.884 540.895 301.175 540.895 300.212V291.016C540.895 290.053 541.098 289.369 541.503 288.964C541.959 288.508 542.669 288.28 543.631 288.28H576.007C576.97 288.28 577.654 288.508 578.059 288.964C578.515 289.369 578.743 290.053 578.743 291.016V300.212C578.743 301.175 578.515 301.884 578.059 302.34C577.654 302.745 576.97 302.948 576.007 302.948H568.635V328.484H576.007C576.97 328.484 577.654 328.712 578.059 329.168C578.515 329.573 578.743 330.257 578.743 331.22V340.264C578.743 341.227 578.515 341.936 578.059 342.392C577.654 342.797 576.97 343 576.007 343H543.631ZM571.903 336.16V335.4H560.275V295.88H571.903V295.12H547.735V295.88H559.515V335.4H547.735V336.16H571.903ZM598.159 295.728C597.905 295.475 597.703 295.297 597.551 295.196C597.399 295.095 597.221 295.044 597.019 295.044C596.816 295.044 596.613 295.12 596.411 295.272C596.208 295.424 596.107 295.652 596.107 295.956V336.16H596.867V296.108C596.867 296.057 596.867 296.007 596.867 295.956C596.917 295.905 596.968 295.88 597.019 295.88C597.069 295.88 597.12 295.905 597.171 295.956C597.272 296.007 597.348 296.057 597.399 296.108L626.127 328.332V336.16H626.887V295.12H626.127V327.192L598.159 295.728ZM602.263 343H590.863C589.9 343 589.191 342.797 588.735 342.392C588.329 341.936 588.127 341.227 588.127 340.264V291.016C588.127 290.053 588.329 289.369 588.735 288.964C589.191 288.508 589.9 288.28 590.863 288.28H598.767C599.729 288.28 600.54 288.432 601.199 288.736C601.908 289.04 602.592 289.572 603.251 290.332L617.995 307.204V291.016C617.995 290.053 618.197 289.369 618.603 288.964C619.059 288.508 619.768 288.28 620.731 288.28H632.131C633.093 288.28 633.777 288.508 634.183 288.964C634.639 289.369 634.867 290.053 634.867 291.016V340.264C634.867 341.227 634.639 341.936 634.183 342.392C633.777 342.797 633.093 343 632.131 343H620.731C619.768 343 619.059 342.797 618.603 342.392C618.197 341.936 617.995 341.227 617.995 340.264V330.916L604.999 315.184V340.264C604.999 341.227 604.771 341.936 604.315 342.392C603.909 342.797 603.225 343 602.263 343ZM687.149 343H663.209C656.876 343 652.164 341.733 649.073 339.2C646.033 336.667 644.513 332.765 644.513 327.496V303.784C644.513 298.515 646.033 294.613 649.073 292.08C652.164 289.547 656.876 288.28 663.209 288.28H682.209C683.172 288.28 683.856 288.508 684.261 288.964C684.717 289.369 684.945 290.053 684.945 291.016V300.212C684.945 301.175 684.717 301.884 684.261 302.34C683.856 302.745 683.172 302.948 682.209 302.948H666.401C664.831 302.948 663.665 303.277 662.905 303.936C662.145 304.544 661.765 305.481 661.765 306.748V324.912C661.765 326.179 662.044 327.116 662.601 327.724C663.209 328.332 664.096 328.636 665.261 328.636H672.633V316.78C672.633 315.817 672.836 315.133 673.241 314.728C673.697 314.272 674.407 314.044 675.369 314.044H687.149C688.112 314.044 688.796 314.272 689.201 314.728C689.657 315.133 689.885 315.817 689.885 316.78V340.264C689.885 341.227 689.657 341.936 689.201 342.392C688.796 342.797 688.112 343 687.149 343ZM666.477 336.16H681.601V320.884H680.841V335.4H666.477C661.36 335.4 657.915 334.716 656.141 333.348C654.419 331.98 653.557 329.649 653.557 326.356V305.076C653.557 301.732 654.343 299.376 655.913 298.008C657.484 296.589 660.499 295.88 664.957 295.88H678.105V295.12H664.957C660.093 295.12 656.851 295.88 655.229 297.4C653.608 298.92 652.797 301.479 652.797 305.076V326.356C652.797 328.129 652.975 329.649 653.329 330.916C653.735 332.132 654.444 333.145 655.457 333.956C656.471 334.716 657.864 335.273 659.637 335.628C661.411 335.983 663.691 336.16 666.477 336.16ZM386.358 413.972C386.358 412.604 386.459 411.337 386.662 410.172C386.915 409.007 387.219 407.917 387.574 406.904L392.438 394.44C392.944 393.173 393.502 392.109 394.11 391.248C394.718 390.336 395.782 389.88 397.302 389.88H404.75C406.168 389.88 407.182 390.336 407.79 391.248C408.398 392.109 408.98 393.199 409.538 394.516L414.782 406.904C415.136 407.917 415.415 409.007 415.618 410.172C415.871 411.337 415.998 412.604 415.998 413.972V416.328H386.358V413.972ZM398.518 398.24L394.946 409.792H406.878L403.306 398.24C403.103 397.784 402.875 397.455 402.622 397.252C402.419 397.049 402.166 396.948 401.862 396.948H399.962C399.658 396.948 399.379 397.049 399.126 397.252C398.923 397.455 398.72 397.784 398.518 398.24ZM415.998 430.16H416.758V413.972C416.758 412.553 416.631 411.261 416.377 410.096C416.175 408.88 415.871 407.715 415.466 406.6L410.222 394.212C409.614 392.743 408.955 391.527 408.246 390.564C407.587 389.601 406.422 389.12 404.75 389.12H397.302C395.579 389.12 394.363 389.601 393.654 390.564C392.944 391.527 392.311 392.717 391.754 394.136L386.89 406.6C386.484 407.715 386.155 408.88 385.902 410.096C385.699 411.261 385.598 412.553 385.598 413.972V430.16H386.358V417.088H415.998V430.16ZM394.186 434.264C394.186 435.227 393.958 435.936 393.501 436.392C393.096 436.797 392.412 437 391.45 437H380.278C379.315 437 378.606 436.797 378.15 436.392C377.744 435.936 377.542 435.227 377.542 434.264V414.2C377.542 412.68 377.77 410.932 378.226 408.956C378.732 406.98 379.492 404.675 380.506 402.04L387.118 384.788C387.422 383.927 387.878 383.293 388.486 382.888C389.144 382.483 389.98 382.28 390.994 382.28H411.438C412.4 382.28 413.186 382.483 413.794 382.888C414.452 383.293 414.934 383.927 415.238 384.788L421.85 402.04C422.863 404.675 423.598 406.98 424.054 408.956C424.56 410.932 424.814 412.68 424.814 414.2V434.264C424.814 435.227 424.586 435.936 424.13 436.392C423.724 436.797 423.04 437 422.078 437H410.602C409.588 437 408.828 436.797 408.322 436.392C407.866 435.936 407.638 435.227 407.638 434.264V423.624H394.186V434.264ZM448.713 437H436.933C435.97 437 435.261 436.797 434.805 436.392C434.4 435.936 434.197 435.227 434.197 434.264V385.016C434.197 384.053 434.4 383.369 434.805 382.964C435.261 382.508 435.97 382.28 436.933 382.28H460.189C467.08 382.28 471.792 383.648 474.325 386.384C476.858 389.12 478.125 392.692 478.125 397.1V406.828C478.125 411.236 476.858 414.808 474.325 417.544C471.792 420.28 467.08 421.648 460.189 421.648H451.449V434.264C451.449 435.227 451.221 435.936 450.765 436.392C450.36 436.797 449.676 437 448.713 437ZM459.125 415.188C461.506 415.188 463.432 414.935 464.901 414.428C466.421 413.921 467.586 413.237 468.397 412.376C469.208 411.464 469.765 410.4 470.069 409.184C470.373 407.917 470.525 406.549 470.525 405.08V399.456C470.525 397.987 470.373 396.619 470.069 395.352C469.765 394.085 469.208 392.996 468.397 392.084C467.586 391.172 466.421 390.463 464.901 389.956C463.432 389.399 461.506 389.12 459.125 389.12H442.709V430.16H443.469V415.188H459.125ZM443.469 414.428V389.88H459.125C461.354 389.88 463.153 390.133 464.521 390.64C465.94 391.096 467.029 391.755 467.789 392.616C468.549 393.477 469.056 394.491 469.309 395.656C469.613 396.821 469.765 398.088 469.765 399.456V405.08C469.765 406.448 469.613 407.715 469.309 408.88C469.056 409.995 468.549 410.983 467.789 411.844C467.029 412.655 465.94 413.288 464.521 413.744C463.153 414.2 461.354 414.428 459.125 414.428H443.469ZM451.297 396.492V407.968H458.137C459.606 407.968 460.569 407.588 461.025 406.828C461.481 406.068 461.709 405.207 461.709 404.244V400.216C461.709 399.253 461.481 398.392 461.025 397.632C460.569 396.872 459.606 396.492 458.137 396.492H451.297ZM500.518 437H488.738C487.775 437 487.066 436.797 486.61 436.392C486.204 435.936 486.002 435.227 486.002 434.264V385.016C486.002 384.053 486.204 383.369 486.61 382.964C487.066 382.508 487.775 382.28 488.738 382.28H511.994C518.884 382.28 523.596 383.648 526.13 386.384C528.663 389.12 529.93 392.692 529.93 397.1V406.828C529.93 411.236 528.663 414.808 526.13 417.544C523.596 420.28 518.884 421.648 511.994 421.648H503.254V434.264C503.254 435.227 503.026 435.936 502.57 436.392C502.164 436.797 501.48 437 500.518 437ZM510.93 415.188C513.311 415.188 515.236 414.935 516.706 414.428C518.226 413.921 519.391 413.237 520.202 412.376C521.012 411.464 521.57 410.4 521.874 409.184C522.178 407.917 522.33 406.549 522.33 405.08V399.456C522.33 397.987 522.178 396.619 521.874 395.352C521.57 394.085 521.012 392.996 520.202 392.084C519.391 391.172 518.226 390.463 516.706 389.956C515.236 389.399 513.311 389.12 510.93 389.12H494.514V430.16H495.274V415.188H510.93ZM495.274 414.428V389.88H510.93C513.159 389.88 514.958 390.133 516.326 390.64C517.744 391.096 518.834 391.755 519.594 392.616C520.354 393.477 520.86 394.491 521.114 395.656C521.418 396.821 521.57 398.088 521.57 399.456V405.08C521.57 406.448 521.418 407.715 521.114 408.88C520.86 409.995 520.354 410.983 519.594 411.844C518.834 412.655 517.744 413.288 516.326 413.744C514.958 414.2 513.159 414.428 510.93 414.428H495.274ZM503.102 396.492V407.968H509.942C511.411 407.968 512.374 407.588 512.83 406.828C513.286 406.068 513.514 405.207 513.514 404.244V400.216C513.514 399.253 513.286 398.392 512.83 397.632C512.374 396.872 511.411 396.492 509.942 396.492H503.102Z" fill="#00FFFF"/>
</svg>
