<svg width="1000" height="1000" viewBox="0 0 1000 1000" fill="none" xmlns="http://www.w3.org/2000/svg">
<circle cx="416" cy="495" r="4.5" stroke="#96922C"/>
<path d="M867.707 824L872 819.707L876.293 824L872 828.293L867.707 824Z" stroke="#8F3B91"/>
<circle cx="582" cy="944" r="4.5" stroke="#FFF848"/>
<path d="M495.707 705L500 700.707L504.293 705L500 709.293L495.707 705Z" stroke="#FB27FF"/>
<circle cx="829" cy="542" r="4.5" stroke="#FFF848"/>
<path d="M184.707 868L189 863.707L193.293 868L189 872.293L184.707 868Z" stroke="#FB27FF"/>
<circle cx="134" cy="138" r="4.5" stroke="#96922C"/>
<path d="M909.707 128L914 123.707L918.293 128L914 132.293L909.707 128Z" stroke="#8F3B91"/>
<circle cx="526" cy="222" r="4.5" stroke="#FFF848"/>
<circle cx="104" cy="641" r="4.5" stroke="#FFF848"/>
<path d="M766.707 354L771 349.707L775.293 354L771 358.293L766.707 354Z" stroke="#FB27FF"/>
<path d="M194.707 364L199 359.707L203.293 364L199 368.293L194.707 364Z" stroke="#FB27FF"/>
</svg>
