<svg width="307" height="201" viewBox="0 0 307 201" fill="none" xmlns="http://www.w3.org/2000/svg">
<path d="M282.5 0.499973C282.5 0.499973 279.197 30.9498 266.185 51.2408C264.73 53.5102 263.181 55.6985 261.597 57.8806C255.398 66.4254 236.942 89.3101 210.107 100.253C181.595 111.879 169.283 113.799 129.753 119.694C92.8169 125.203 71.1108 128.44 43.5707 119.368C25.0423 113.265 13.5629 97.2646 10 77.5C6.43712 57.7354 10.7372 33.1393 30.5 20.5C50.2627 7.86072 68.3839 7.69587 87.5 14.5C102.412 19.8077 111.097 32.9602 114.197 38.4887C115.12 40.1351 115.935 41.8296 116.655 43.5742C119.495 50.4543 125.99 70.0531 117.443 89.2362C102.863 121.96 63.8229 122.841 37.415 147.556C13.1151 167.968 14 200.5 14 200.5" stroke="black"/>
</svg>
